<svg width="48" height="48" viewBox="0 0 48 48" fill="none" xmlns="http://www.w3.org/2000/svg">
<path d="M11.7111 13.6793C11.2463 13.429 10.6841 13.4415 10.2308 13.7122C9.77756 13.983 9.5 14.472 9.5 15V34C9.5 34.8284 10.1716 35.5 11 35.5C11.8284 35.5 12.5 34.8284 12.5 34V17.5113L23.2888 23.3207C23.7328 23.5598 24.2672 23.5598 24.7112 23.3207L35.5 17.5113V34C35.5 34.8284 36.1716 35.5 37 35.5C37.8284 35.5 38.5 34.8284 38.5 34V15C38.5 14.472 38.2224 13.983 37.7692 13.7122C37.3159 13.4415 36.7537 13.429 36.2888 13.6793L24 20.2964L11.7111 13.6793Z" fill="#F5F2E7"/>
<path fill-rule="evenodd" clip-rule="evenodd" d="M34.6212 7.44367C27.5545 6.81183 20.4455 6.81183 13.3789 7.44367L10.3442 7.71501C7.08894 8.00606 4.4588 10.4929 3.98601 13.7267C2.99001 20.5394 2.99001 27.4606 3.98601 34.2733C4.4588 37.5071 7.08894 39.9939 10.3442 40.285L13.3789 40.5563C20.4455 41.1882 27.5545 41.1882 34.6212 40.5563L37.6559 40.285C40.9111 39.9939 43.5412 37.5071 44.014 34.2733C45.01 27.4606 45.01 20.5394 44.014 13.7267C43.5412 10.4929 40.9111 8.00606 37.6559 7.71501L34.6212 7.44367ZM13.646 10.4318C20.5349 9.8158 27.4651 9.8158 34.354 10.4318L37.3887 10.7031C39.2609 10.8705 40.7737 12.3008 41.0456 14.1607C41.9995 20.6856 41.9995 27.3144 41.0456 33.8393C40.7737 35.6992 39.2609 37.1295 37.3887 37.2969L34.354 37.5682C27.4651 38.1842 20.5349 38.1842 13.646 37.5682L10.6113 37.2969C8.7391 37.1295 7.22638 35.6992 6.95446 33.8393C6.00053 27.3144 6.00053 20.6856 6.95446 14.1607C7.22638 12.3008 8.7391 10.8705 10.6113 10.7031L13.646 10.4318Z" fill="#F5F2E7"/>
</svg>
