<svg width="48" height="48" viewBox="0 0 48 48" fill="none" xmlns="http://www.w3.org/2000/svg">
<path d="M32 14C32 12.8954 32.8954 12 34 12C35.1046 12 36 12.8954 36 14C36 15.1046 35.1046 16 34 16C32.8954 16 32 15.1046 32 14Z" fill="#F5F2E7"/>
<path fill-rule="evenodd" clip-rule="evenodd" d="M24 14.5C18.7533 14.5 14.5 18.7533 14.5 24C14.5 29.2467 18.7533 33.5 24 33.5C29.2467 33.5 33.5 29.2467 33.5 24C33.5 18.7533 29.2467 14.5 24 14.5ZM17.5 24C17.5 20.4101 20.4101 17.5 24 17.5C27.5899 17.5 30.5 20.4101 30.5 24C30.5 27.5899 27.5899 30.5 24 30.5C20.4101 30.5 17.5 27.5899 17.5 24Z" fill="#F5F2E7"/>
<path fill-rule="evenodd" clip-rule="evenodd" d="M34.5165 5.66603C27.5834 4.89115 20.4167 4.89115 13.4835 5.66603C9.45943 6.11578 6.21076 9.28581 5.73765 13.3309C4.90858 20.4195 4.90858 27.5805 5.73765 34.6691C6.21076 38.7142 9.45943 41.8842 13.4835 42.334C20.4167 43.1088 27.5834 43.1088 34.5165 42.334C38.5406 41.8842 41.7893 38.7142 42.2624 34.6691C43.0915 27.5805 43.0915 20.4195 42.2624 13.3309C41.7893 9.28581 38.5406 6.11578 34.5165 5.66603ZM13.8168 8.64747C20.5285 7.89734 27.4716 7.89734 34.1833 8.64747C36.8435 8.94479 38.9745 11.044 39.2827 13.6794C40.0847 20.5364 40.0847 27.4636 39.2827 34.3206C38.9745 36.956 36.8435 39.0552 34.1833 39.3525C27.4716 40.1027 20.5285 40.1027 13.8168 39.3525C11.1565 39.0552 9.02557 36.956 8.71734 34.3206C7.91535 27.4636 7.91535 20.5364 8.71734 13.6794C9.02557 11.044 11.1565 8.94479 13.8168 8.64747Z" fill="#F5F2E7"/>
</svg>
