<svg width="48" height="48" viewBox="0 0 48 48" fill="none" xmlns="http://www.w3.org/2000/svg">
<path d="M33.9695 27C33.9695 28.5987 32.6735 29.8947 31.0748 29.8947C29.4761 29.8947 28.1801 28.5987 28.1801 27C28.1801 25.4012 29.4761 24.1052 31.0748 24.1052C32.6735 24.1052 33.9695 25.4012 33.9695 27Z" fill="#F5F2E7"/>
<path d="M16.9148 29.8947C18.5135 29.8947 19.8095 28.5987 19.8095 27C19.8095 25.4012 18.5135 24.1052 16.9148 24.1052C15.316 24.1052 14.02 25.4012 14.02 27C14.02 28.5987 15.316 29.8947 16.9148 29.8947Z" fill="#F5F2E7"/>
<path d="M17.7003 33.2576C16.9996 32.8157 16.0733 33.0254 15.6313 33.726C15.1893 34.4267 15.399 35.353 16.0997 35.795L16.7895 36.2302C21.1901 39.006 26.7941 39.006 31.1946 36.2302L31.8845 35.795C32.5851 35.353 32.7948 34.4267 32.3529 33.726C31.9109 33.0254 30.9846 32.8157 30.2839 33.2576L29.5941 33.6928C26.1714 35.8518 21.8127 35.8518 18.3901 33.6928L17.7003 33.2576Z" fill="#F5F2E7"/>
<path fill-rule="evenodd" clip-rule="evenodd" d="M39.921 3.5C38.1732 3.5 36.649 4.45722 35.8441 5.87601L28.6435 4.39897C27.9442 4.25554 27.2408 4.62473 26.9616 5.28166C26.14 7.21484 24.9071 10.1447 23.8787 12.6517C23.5146 13.5391 23.1747 14.3772 22.887 15.1013C18.7942 15.2662 15.0013 16.3355 11.899 18.0709C10.8295 16.2801 8.87215 15.0789 6.63158 15.0789C3.2452 15.0789 0.5 17.8241 0.5 21.2105C0.5 23.8012 2.10561 26.0141 4.37483 26.9129C4.11291 27.8702 3.97363 28.8668 3.97363 29.8947C3.97363 34.1777 6.3917 37.9174 10.0244 40.5284C13.6595 43.1411 18.6054 44.7105 23.9999 44.7105C29.3945 44.7105 34.3404 43.1411 37.9755 40.5284C41.6082 37.9174 44.0263 34.1777 44.0263 29.8947C44.0263 28.8668 43.887 27.8702 43.6251 26.913C45.8936 26.0144 47.5 23.8017 47.5 21.2105C47.5 17.8241 44.7548 15.0789 41.3684 15.0789C39.1278 15.0789 37.1705 16.2801 36.1009 18.0709C33.2487 16.4754 29.8126 15.4428 26.0964 15.1586C26.2716 14.7256 26.4589 14.2663 26.6542 13.7903C27.4921 11.7479 28.4681 9.419 29.2438 7.58458L35.28 8.82277C35.5914 11.1077 37.5506 12.8684 39.921 12.8684C42.508 12.8684 44.6052 10.7712 44.6052 8.18421C44.6052 5.59719 42.508 3.5 39.921 3.5ZM38.2368 8.18421C38.2368 7.25405 38.9909 6.5 39.921 6.5C40.8512 6.5 41.6052 7.25405 41.6052 8.18421C41.6052 9.11437 40.8512 9.86842 39.921 9.86842C38.9909 9.86842 38.2368 9.11437 38.2368 8.18421ZM23.9999 18.0789C24.3086 18.0789 24.6151 18.0847 24.9193 18.096C24.9163 18.1537 24.9105 18.1964 24.9075 18.2169C24.9026 18.2506 24.8976 18.2741 24.8956 18.283L24.8929 18.2948L24.8983 18.2757C24.9091 18.2385 24.9277 18.1801 24.9559 18.0974C29.4047 18.2698 33.3582 19.6368 36.2246 21.697C39.2971 23.9054 41.0263 26.8236 41.0263 29.8947C41.0263 32.9658 39.2971 35.884 36.2246 38.0924C33.1544 40.299 28.8372 41.7105 23.9999 41.7105C19.1627 41.7105 14.8454 40.299 11.7753 38.0924C8.70282 35.884 6.97363 32.9658 6.97363 29.8947C6.97363 26.8236 8.70282 23.9054 11.7753 21.697C14.8454 19.4904 19.1627 18.0789 23.9999 18.0789ZM3.5 21.2105C3.5 19.481 4.90206 18.0789 6.63158 18.0789C7.82565 18.0789 8.86644 18.7479 9.39468 19.7346C7.79604 20.9923 6.46787 22.4803 5.52633 24.1419C4.34178 23.6952 3.5 22.5497 3.5 21.2105ZM42.4736 24.1419C41.532 22.4803 40.2039 20.9923 38.6053 19.7346C39.1335 18.7479 40.1743 18.0789 41.3684 18.0789C43.0979 18.0789 44.5 19.481 44.5 21.2105C44.5 22.5492 43.6589 23.695 42.4736 24.1419Z" fill="#F5F2E7"/>
</svg>
