<svg width="48" height="48" viewBox="0 0 48 48" fill="none" xmlns="http://www.w3.org/2000/svg">
<path fill-rule="evenodd" clip-rule="evenodd" d="M11.5752 28.0392C11.6627 28.0687 11.7511 28.0896 11.8394 28.1025C11.9357 28.3287 12.06 28.6214 12.2052 28.9636C12.5593 29.7989 13.0365 30.9285 13.529 32.107C14.5335 34.5105 15.5468 36.9879 15.7705 37.697C16.0476 38.5737 16.3404 39.1697 16.66 39.5765C16.8253 39.7869 17.0165 39.9707 17.2402 40.1098C17.3528 40.1798 17.4717 40.2373 17.5959 40.2801C17.6014 40.2819 17.6068 40.2838 17.6123 40.2856C18.2523 40.5273 18.8358 40.4265 19.2012 40.3035C19.3967 40.2377 19.5548 40.1581 19.6669 40.0937C19.7241 40.0609 19.7724 40.0302 19.8109 40.0043L19.82 39.9981L25.4724 36.4732L32.0014 41.4788C32.0978 41.5527 32.2028 41.6146 32.3142 41.6632C33.0985 42.0055 33.8581 42.1249 34.5726 42.0273C35.2858 41.9298 35.8522 41.6301 36.2737 41.2929C36.6866 40.9626 36.9664 40.5927 37.1407 40.3178C37.2297 40.1774 37.2966 40.0533 37.3437 39.9582C37.3674 39.9104 37.3864 39.8692 37.4011 39.8361L37.42 39.7925L37.4271 39.7754L37.43 39.7681L37.4314 39.7648L37.4327 39.7616C37.467 39.6759 37.4933 39.5871 37.5112 39.4965L43.4717 9.44548C43.4908 9.34937 43.5004 9.25163 43.5004 9.15365C43.5004 8.27362 43.1688 7.43682 42.3891 6.92903C41.7227 6.49504 40.9804 6.47635 40.5112 6.51196C40.0052 6.55038 39.5377 6.67531 39.2241 6.77514C39.0609 6.8271 38.924 6.87723 38.8253 6.91547C38.7757 6.93469 38.7351 6.95118 38.7048 6.96376L38.6821 6.97333L5.25463 20.0864L5.2503 20.088C5.22899 20.0957 5.20165 20.1059 5.16914 20.1186C5.10442 20.1438 5.01769 20.1793 4.91639 20.2252C4.71882 20.3148 4.44166 20.4547 4.15724 20.6495C3.70286 20.9606 2.65788 21.8128 2.83385 23.2194C2.97422 24.3416 3.74298 25.0307 4.21136 25.3621C4.46855 25.5441 4.71288 25.6743 4.89082 25.759C4.97337 25.7983 5.14476 25.8679 5.21913 25.8981L5.23789 25.9057L11.5752 28.0392ZM39.8519 9.73573L39.8473 9.73776C39.8306 9.74499 39.8138 9.75193 39.797 9.75855L6.32893 22.8876C6.31145 22.8944 6.29385 22.9009 6.27612 22.9071L6.2575 22.9142C6.23609 22.9225 6.20004 22.9372 6.15479 22.9577C6.12914 22.9693 6.10237 22.982 6.07507 22.9956C6.11257 23.0167 6.14846 23.0351 6.18036 23.0503C6.21098 23.0648 6.23434 23.0748 6.24712 23.0801L12.5324 25.196C12.6474 25.2348 12.7547 25.2861 12.8531 25.3479L33.6066 13.199L33.626 13.1875C33.6412 13.1785 33.661 13.1671 33.6848 13.1536C33.7321 13.1269 33.797 13.0914 33.8742 13.0521C34.0182 12.9788 34.2486 12.8699 34.5083 12.7897C34.689 12.7338 35.222 12.5765 35.7981 12.7613C36.1538 12.8753 36.522 13.1206 36.7614 13.536C36.8804 13.7423 36.9438 13.9497 36.9745 14.1394C37.0561 14.4384 37.0431 14.7336 36.9793 14.9885C36.8418 15.5375 36.4561 15.9657 36.1051 16.2933C35.8044 16.5741 31.9136 20.3258 28.0753 24.0294C26.1612 25.8763 24.2666 27.7049 22.8506 29.0719L21.9205 29.9698L33.6643 38.9735C33.9337 39.0699 34.0929 39.0649 34.1666 39.0549C34.2543 39.0429 34.3261 39.0091 34.3995 38.9504C34.4816 38.8847 34.5534 38.7961 34.607 38.7115L34.6092 38.708L40.3901 9.56204C40.3043 9.58266 40.2176 9.60721 40.134 9.63383C40.0393 9.66397 39.9612 9.69268 39.9094 9.71274C39.8838 9.72268 39.8653 9.73021 39.8553 9.73437L39.8519 9.73573ZM22.9294 34.5235L20.5864 32.7272L20.0187 36.3387L22.9294 34.5235ZM18.437 29.1628L20.767 26.9135C22.1832 25.5464 24.0779 23.7176 25.9922 21.8705L27.9372 19.994L14.8972 27.6276L14.9671 27.7925C15.3225 28.6308 15.8019 29.7654 16.297 30.9502C16.6673 31.8361 17.0545 32.7689 17.4071 33.6325L17.9732 30.0317C18.0278 29.6845 18.1974 29.384 18.437 29.1628Z" fill="#F5F2E7"/>
</svg>
