<svg width="48" height="48" viewBox="0 0 48 48" fill="none" xmlns="http://www.w3.org/2000/svg">
<path fill-rule="evenodd" clip-rule="evenodd" d="M30.0429 6.68695C31.0597 6.51279 32.1983 6.45464 33.2698 6.63592C35.1835 6.95969 36.9512 7.84915 38.3486 9.18266C39.262 9.20332 40.1596 9.02338 40.9539 8.76685C41.6261 8.54975 42.1939 8.28761 42.5918 8.08033C42.7897 7.97727 42.9425 7.88935 43.0419 7.82983C43.0915 7.80012 43.1275 7.77763 43.1489 7.76405L43.168 7.75193C43.7616 7.35647 44.552 7.43344 45.0578 7.93645C45.5636 8.43958 45.6451 9.22942 45.2526 9.82523C44.8372 10.4558 44.2605 11.58 43.6144 12.8395C43.5128 13.0375 43.4095 13.2389 43.3048 13.4422C42.9342 14.1622 42.5542 14.8898 42.2001 15.5141C41.9777 15.906 41.7398 16.304 41.5 16.6479V17.1954C41.5152 19.2067 41.2846 21.2074 40.8164 23.1539C40.5218 24.3786 40.1333 25.5817 39.6528 26.7525C38.408 29.7858 36.5712 32.5407 34.2497 34.8562C31.9283 37.1717 29.1687 39.0014 26.1322 40.2385C23.0983 41.4745 19.8489 42.0941 16.5732 42.0612C11.8245 42.0653 7.1758 40.6972 3.18636 38.1214C2.59876 37.742 2.35136 37.0068 2.59003 36.3494C2.8287 35.6919 3.49009 35.2867 4.18424 35.3726C4.78496 35.4469 5.38978 35.4832 5.99508 35.4812C8.16998 35.4751 10.3035 34.9946 12.2512 34.0893C11.6321 33.8075 11.041 33.46 10.4887 33.0504C8.86527 31.8466 7.65745 30.1667 7.03332 28.2444C6.87113 27.7449 6.98201 27.1969 7.32563 26.7998C7.33179 26.7927 7.338 26.7856 7.34427 26.7786C6.97722 26.4513 6.63376 26.095 6.31757 25.7117C4.89493 23.9873 4.11158 21.8244 4.10002 19.589L4.09998 19.5812L4.1 19.4812C4.1 18.9495 4.3815 18.4575 4.83991 18.188C4.95611 18.1197 5.07928 18.0683 5.20598 18.0338C4.52931 16.6837 4.17743 15.1928 4.18 13.6803C4.1792 11.9667 4.62679 10.2828 5.47832 8.7958C5.72414 8.36653 6.16579 8.08606 6.65885 8.0461C7.15191 8.00615 7.63296 8.21186 7.94469 8.59595C9.8698 10.968 12.2724 12.9085 14.9963 14.2914C16.3966 15.0023 17.8657 15.5577 19.3773 15.9506C20.2248 16.1709 21.0856 16.34 21.9552 16.4569C21.9169 15.0104 22.2025 13.5646 22.802 12.2288C23.6813 10.2691 25.1863 8.65676 27.0807 7.64458C27.883 7.21592 28.948 6.8745 30.0429 6.68695ZM7.48655 21.7819C7.74584 22.5117 8.13158 23.1964 8.63169 23.8026C9.61433 24.9936 10.9782 25.8088 12.4927 26.11C13.1672 26.2442 13.6641 26.82 13.6982 27.5069C13.7322 28.1939 13.2947 28.816 12.6367 29.0162C12.0917 29.1821 11.5334 29.2976 10.9687 29.3618C11.3418 29.8428 11.7808 30.2737 12.2756 30.6406C13.398 31.4729 14.7519 31.9346 16.1489 31.9615C16.7827 31.9737 17.3404 32.383 17.5421 32.9841C17.7437 33.5851 17.5458 34.248 17.0476 34.64C14.9492 36.2911 12.5228 37.4424 9.95172 38.0302C12.0827 38.7126 14.3176 39.064 16.5782 39.0612L16.5956 39.0612C19.4757 39.0911 22.3329 38.5469 25.0003 37.4602C27.6677 36.3735 30.0918 34.7662 32.1311 32.7322C34.1704 30.6981 35.7839 28.2781 36.8774 25.6135C37.2995 24.5851 37.6408 23.5282 37.8996 22.4523C38.3112 20.7408 38.5139 18.9815 38.5 17.2129L38.5 17.2012V16.1412C38.5 15.7775 38.6321 15.4262 38.8718 15.1526C39.0104 14.9946 39.2527 14.6294 39.5908 14.0336C39.9121 13.4674 40.2676 12.7876 40.6374 12.0692C40.6598 12.0258 40.6823 11.9821 40.7048 11.9382C39.7456 12.1465 38.6585 12.2557 37.5188 12.1325C37.1579 12.0935 36.8234 11.9249 36.5773 11.6581C35.5715 10.5674 34.2322 9.84137 32.7694 9.59389C32.1203 9.48408 31.3356 9.50922 30.5494 9.64389C29.6952 9.79021 28.9518 10.0462 28.4944 10.2906C27.1859 10.9897 26.1464 12.1034 25.539 13.457C24.9316 14.8106 24.7907 16.3275 25.1383 17.7698C25.2491 18.2296 25.1365 18.7147 24.8346 19.0788C24.5326 19.4429 24.0766 19.6432 23.6042 19.6193C21.9174 19.534 20.2484 19.2767 18.6227 18.8541C16.9029 18.4072 15.2314 17.7753 13.6383 16.9664C11.2927 15.7756 9.1566 14.2214 7.30693 12.366C7.22254 12.7973 7.17971 13.2373 7.18 13.6802L7.18 13.6841C7.17791 14.7855 7.4482 15.8703 7.96682 16.842C8.48544 17.8137 9.23629 18.6421 10.1525 19.2534C10.7086 19.6244 10.952 20.3186 10.7495 20.9556C10.547 21.5927 9.9474 22.0188 9.2792 22.0007C8.67401 21.9842 8.07389 21.9106 7.48655 21.7819Z" fill="#F5F2E7"/>
</svg>
